HIERARCHY
ROOT joint_Root
{
	OFFSET 0.0 0.0 0.0
	CHANNELS 6 Xposition Yposition Zposition Zrotation Xrotation Yrotation 
	JOINT Hips
	{
		OFFSET 4.5925 91.4895 -427.239
		CHANNELS 6 Xposition Yposition Zposition Zrotation Xrotation Yrotation 
		JOINT Spine
		{
			OFFSET 15.7357 0.0 0.0
			CHANNELS 6 Xposition Yposition Zposition Zrotation Xrotation Yrotation 
			JOINT Chest
			{
				OFFSET 8.98455 -0.406207 0.0
				CHANNELS 6 Xposition Yposition Zposition Zrotation Xrotation Yrotation 
				JOINT Neck
				{
					OFFSET 16.3773 0.0 0.0
					CHANNELS 6 Xposition Yposition Zposition Zrotation Xrotation Yrotation 
					JOINT Head
					{
						OFFSET 6.45672 0.0 0.0
						CHANNELS 6 Xposition Yposition Zposition Zrotation Xrotation Yrotation 
						End Site
						{
							OFFSET 0.0 0.0 0.0
						}
					}
				}
				JOINT Shoulder_L
				{
					OFFSET 12.9942 -0.242716 4.98039
					CHANNELS 6 Xposition Yposition Zposition Zrotation Xrotation Yrotation 
					JOINT UpperArm_L
					{
						OFFSET 5.34809 0.0 0.0
						CHANNELS 6 Xposition Yposition Zposition Zrotation Xrotation Yrotation 
						JOINT LowerArm_L
						{
							OFFSET 24.3286 1.87007e-05 0.0
							CHANNELS 6 Xposition Yposition Zposition Zrotation Xrotation Yrotation 
							JOINT Hand_L
							{
								OFFSET 22.2916 0.0 0.0
								CHANNELS 6 Xposition Yposition Zposition Zrotation Xrotation Yrotation 
								End Site
								{
									OFFSET 0.0 0.0 0.0
								}
							}
						}
					}
				}
				JOINT Shoulder_R
				{
					OFFSET 12.9945 -0.242716 -4.98039
					CHANNELS 6 Xposition Yposition Zposition Zrotation Xrotation Yrotation 
					JOINT UpperArm_R
					{
						OFFSET -5.34813 0.0 0.0
						CHANNELS 6 Xposition Yposition Zposition Zrotation Xrotation Yrotation 
						JOINT LowerArm_R
						{
							OFFSET -24.3289 0.000322201 0.0
							CHANNELS 6 Xposition Yposition Zposition Zrotation Xrotation Yrotation 
							JOINT Hand_R
							{
								OFFSET -22.2915 -0.000108084 0.0
								CHANNELS 6 Xposition Yposition Zposition Zrotation Xrotation Yrotation 
								End Site
								{
									OFFSET 0.0 0.0 0.0
								}
							}
						}
					}
				}
			}
		}
		JOINT UpperLeg_L
		{
			OFFSET -2.19248 -6.46944 0.0
			CHANNELS 6 Xposition Yposition Zposition Zrotation Xrotation Yrotation 
			JOINT LowerLeg_L
			{
				OFFSET 39.0811 0.0 -1.23785e-05
				CHANNELS 6 Xposition Yposition Zposition Zrotation Xrotation Yrotation 
				JOINT Foot_L
				{
					OFFSET 40.9854 0.0 -1.26872e-05
					CHANNELS 6 Xposition Yposition Zposition Zrotation Xrotation Yrotation 
					JOINT Toes_L
					{
						OFFSET 11.7543 0.0 0.0
						CHANNELS 6 Xposition Yposition Zposition Zrotation Xrotation Yrotation 
						End Site
						{
							OFFSET 0.0 0.0 0.0
						}
					}
				}
			}
		}
		JOINT UpperLeg_R
		{
			OFFSET -2.19251 6.46944 0.0
			CHANNELS 6 Xposition Yposition Zposition Zrotation Xrotation Yrotation 
			JOINT LowerLeg_R
			{
				OFFSET -39.0811 -0.00228153 -0.0401928
				CHANNELS 6 Xposition Yposition Zposition Zrotation Xrotation Yrotation 
				JOINT Foot_R
				{
					OFFSET -40.9854 0.0 0.0
					CHANNELS 6 Xposition Yposition Zposition Zrotation Xrotation Yrotation 
					JOINT Toes_R
					{
						OFFSET -11.7543 0.0 0.0
						CHANNELS 6 Xposition Yposition Zposition Zrotation Xrotation Yrotation 
						End Site
						{
							OFFSET 0.0 0.0 0.0
						}
					}
				}
			}
		}
	}
}
MOTION
Frames:	9
Frame Time:	0.0333333
0.000000 0.000000 0.000000 0.000000 0.000000 -0.000000 0.263083 84.727400 -0.577445 90.826400 -4.506080 7.759110 15.735700 0.000005 -0.000001 89.767900 82.076400 -89.761500 8.984550 -0.406207 -0.000000 8.081110 -0.063880 0.017288 16.377300 -0.000001 -0.000001 -0.586841 -4.106300 1.546800 6.456720 -0.000001 -0.000000 1.133770 -4.659090 4.701130 12.994200 -0.242716 4.980390 -91.641100 5.870770 -74.351800 5.348090 -0.000007 -0.000001 -69.715300 19.380000 -9.260990 24.328600 0.000019 0.000005 9.394610 14.044100 -34.276400 22.291600 -0.000001 0.000005 13.990600 5.352670 -1.461510 12.994500 -0.242716 -4.980390 88.353900 9.037490 -79.631700 -5.348130 -0.000001 -0.000004 -61.234200 33.444500 -9.474350 -24.328900 0.000322 -0.000009 1.644890 2.950280 -29.186900 -22.291500 -0.000108 -0.000004 20.608300 5.474600 -5.558060 -2.192480 -6.469440 -0.000000 -176.443000 -14.939100 -13.841600 39.081100 -0.000007 -0.000012 -0.403971 0.291214 54.213900 40.985400 -0.000006 -0.000013 2.190940 5.634690 -82.475200 11.754300 -0.000000 0.000003 -0.000614 -0.004723 -16.748700 -2.192510 6.469440 -0.000001 174.305000 13.796000 165.294000 -39.081100 -0.002282 -0.040193 0.068529 -0.044835 55.528200 -40.985400 0.000008 0.000006 6.586420 6.862980 -82.787800 -11.754300 -0.000006 -0.000006 -0.722177 -0.889740 -16.906200
0.000000 0.000000 0.000000 0.000000 0.000000 -0.000000 0.475551 86.074400 0.117450 91.386300 -5.354880 8.309370 15.735700 0.000005 -0.000001 89.917300 82.434000 -89.273800 8.984550 -0.406207 -0.000000 7.366330 -0.024008 1.287200 16.377300 -0.000001 -0.000001 1.340100 -4.236240 1.449210 6.456720 -0.000001 -0.000000 2.543430 -4.637010 3.558180 12.994200 -0.242716 4.980390 -91.323900 4.506940 -73.608800 5.348090 -0.000007 -0.000001 -64.420900 15.531200 -16.673600 24.328600 0.000019 0.000005 12.085100 14.567900 -40.404000 22.291600 -0.000001 0.000005 13.406700 5.372030 -2.049280 12.994500 -0.242716 -4.980390 88.332000 8.569260 -78.941800 -5.348130 -0.000001 -0.000004 -63.441600 30.031400 -8.119560 -24.328900 0.000322 -0.000009 1.070410 2.230250 -25.626200 -22.291500 -0.000108 -0.000004 21.869000 5.426530 -3.823290 -2.192480 -6.469440 -0.000000 -176.996000 -15.219700 -10.278200 39.081100 -0.000007 -0.000012 -0.364209 0.312810 49.342300 40.985400 -0.000006 -0.000013 1.830930 5.109960 -80.638500 11.754300 -0.000000 0.000003 -0.000588 -0.004558 -16.743100 -2.192510 6.469440 -0.000001 173.285000 13.578900 168.256000 -39.081100 -0.002282 -0.040193 0.056648 -0.042723 51.341600 -40.985400 0.000008 0.000006 6.489110 7.915860 -80.942900 -11.754300 -0.000006 -0.000006 -0.774081 -0.952905 -17.056900
0.000000 0.000000 0.000000 0.000000 0.000000 -0.000000 0.474631 87.871400 0.669520 91.516100 -5.469190 8.175540 15.735700 0.000005 -0.000001 87.987700 83.063700 -86.536500 8.984550 -0.406207 -0.000000 6.106340 -0.506757 2.926310 16.377300 -0.000001 -0.000001 3.743080 -4.591830 1.197020 6.456720 -0.000001 -0.000000 3.487870 -4.837310 2.169840 12.994200 -0.242716 4.980390 -90.817100 2.681380 -73.043600 5.348090 -0.000007 -0.000001 -57.734200 7.612960 -26.795400 24.328600 0.000019 0.000005 12.879400 12.799600 -45.913800 22.291600 -0.000001 0.000005 13.456600 5.379370 -2.278840 12.994500 -0.242716 -4.980390 88.252900 8.062480 -77.729600 -5.348130 -0.000001 -0.000004 -64.102300 29.133800 -7.373080 -24.328900 0.000322 -0.000009 -0.391120 -0.948863 -22.360300 -22.291500 -0.000108 -0.000004 21.507000 5.437810 -4.212290 -2.192480 -6.469440 -0.000000 -177.234000 -14.857800 -6.640060 39.081100 -0.000007 -0.000012 -0.322413 0.351896 42.497200 40.985400 -0.000006 -0.000013 1.364170 4.859240 -77.585200 11.754300 -0.000000 0.000003 -0.000441 -0.003586 -16.709300 -2.192510 6.469440 -0.000001 173.032000 13.933400 171.635000 -39.081100 -0.002282 -0.040193 0.044432 -0.041137 45.021300 -40.985400 0.000008 0.000006 6.302210 8.653610 -78.030000 -11.754300 -0.000006 -0.000006 -0.649300 -0.796503 -17.306600
0.000000 0.000000 0.000000 0.000000 0.000000 -0.000000 0.250306 89.468300 0.974553 91.226100 -5.058120 7.339820 15.735700 0.000005 -0.000001 83.811500 83.856400 -81.526100 8.984550 -0.406207 -0.000000 4.482460 -1.387690 4.620160 16.377300 -0.000001 -0.000001 5.820060 -5.330630 1.219300 6.456720 -0.000001 -0.000000 4.317140 -5.168340 1.187110 12.994200 -0.242716 4.980390 -90.266000 0.892927 -73.425500 5.348090 -0.000007 -0.000001 -50.220600 -4.522860 -37.036400 24.328600 0.000019 0.000005 9.779950 7.847910 -51.639300 22.291600 -0.000001 0.000005 15.470600 5.374930 -2.146440 12.994500 -0.242716 -4.980390 88.193700 7.422750 -76.281100 -5.348130 -0.000001 -0.000004 -64.015400 28.997000 -5.905630 -24.328900 0.000322 -0.000009 0.012408 0.031927 -22.028200 -22.291500 -0.000108 -0.000004 19.775000 5.444010 -4.426090 -2.192480 -6.469440 -0.000000 -176.855000 -15.294600 -3.890160 39.081100 -0.000007 -0.000012 -0.241981 0.336452 35.724700 40.985400 -0.000006 -0.000013 1.191480 5.865860 -74.332000 11.754300 -0.000000 0.000003 -0.000314 -0.002704 -16.678100 -2.192510 6.469440 -0.000001 173.544000 14.784700 174.382000 -39.081100 -0.002282 -0.040193 0.033013 -0.037448 38.446400 -40.985400 0.000008 0.000006 6.046880 9.163480 -74.937800 -11.754300 -0.000006 -0.000006 -0.612493 -0.751111 -17.392800
0.000000 0.000000 0.000000 0.000000 0.000000 -0.000000 -0.060185 90.508800 1.145250 90.905200 -4.755250 6.239520 15.735700 0.000005 -0.000001 77.148200 84.475000 -74.245900 8.984550 -0.406207 -0.000000 3.081640 -2.573800 5.868560 16.377300 -0.000001 -0.000001 6.918940 -5.798770 1.643790 6.456720 -0.000001 -0.000000 4.793500 -5.297340 0.904239 12.994200 -0.242716 4.980390 -89.603300 -1.428860 -74.464500 5.348090 -0.000007 -0.000001 -44.221400 -21.070200 -46.325100 24.328600 0.000019 0.000005 4.803430 3.266710 -55.878400 22.291600 -0.000001 0.000005 18.683200 5.384820 -2.450690 12.994500 -0.242716 -4.980390 88.115500 7.186710 -75.264900 -5.348130 -0.000001 -0.000004 -62.937700 29.369400 -4.147190 -24.328900 0.000322 -0.000009 0.781301 1.758960 -23.979700 -22.291500 -0.000108 -0.000004 18.612400 5.449740 -4.631260 -2.192480 -6.469440 -0.000000 -176.495000 -16.346000 -2.452940 39.081100 -0.000007 -0.000012 -0.087071 0.145375 30.919300 40.985400 -0.000006 -0.000013 2.535910 7.061650 -72.200000 11.754300 -0.000000 0.000003 -0.804729 -1.059540 -15.961100 -2.192510 6.469440 -0.000001 174.043000 16.498900 176.232000 -39.081100 -0.002282 -0.040193 0.025680 -0.034274 33.150000 -40.985400 0.000008 0.000006 6.357920 10.474600 -73.018000 -11.754300 -0.000006 -0.000006 -0.342569 -0.423773 -17.243500
0.000000 0.000000 0.000000 0.000000 0.000000 -0.000000 -0.219003 91.035700 1.172910 90.703500 -5.638300 5.057820 15.735700 0.000005 -0.000001 71.632800 84.704500 -68.349400 8.984550 -0.406207 -0.000000 2.398030 -3.488330 6.635070 16.377300 -0.000001 -0.000001 6.787990 -5.475760 2.037160 6.456720 -0.000001 -0.000000 4.881330 -4.966390 1.474760 12.994200 -0.242716 4.980390 -88.657600 -5.089230 -75.201400 5.348090 -0.000007 -0.000001 -44.934900 -40.086800 -57.124300 24.328600 0.000019 0.000005 1.246850 0.804590 -57.161600 22.291600 -0.000001 0.000005 21.102400 5.404830 -3.079290 12.994500 -0.242716 -4.980390 87.912700 7.759610 -74.893800 -5.348130 -0.000001 -0.000004 -60.404600 30.117900 -3.270660 -24.328900 0.000322 -0.000009 0.760502 1.511620 -26.743000 -22.291500 -0.000108 -0.000004 18.985600 5.459140 -4.968500 -2.192480 -6.469440 -0.000000 -176.298000 -17.685000 -2.058730 39.081100 -0.000007 -0.000012 -0.056712 0.106396 28.059000 40.985400 -0.000006 -0.000013 2.538380 7.718410 -70.867700 11.754300 -0.000000 0.000003 -0.910235 -1.182440 -15.867800 -2.192510 6.469440 -0.000001 174.246000 18.345800 176.672000 -39.081100 -0.002282 -0.040193 0.019484 -0.028060 29.971500 -40.985400 0.000008 0.000006 6.765860 13.170000 -72.097300 -11.754300 -0.000006 -0.000006 -0.166819 -0.208610 -16.952800
0.000000 0.000000 0.000000 0.000000 0.000000 -0.000000 -0.146315 91.241500 1.175630 90.155600 -7.946480 4.107550 15.735700 0.000005 -0.000001 69.999200 84.851900 -66.185300 8.984550 -0.406207 -0.000000 2.048240 -3.709310 7.689200 16.377300 -0.000001 -0.000001 6.678380 -4.321200 1.511770 6.456720 -0.000001 -0.000000 4.942070 -4.484600 2.671190 12.994200 -0.242716 4.980390 -87.180700 -10.005000 -74.181200 5.348090 -0.000007 -0.000001 -50.216100 -53.921200 -68.878000 24.328600 0.000019 0.000005 -5.761090 -3.947030 -55.725000 22.291600 -0.000001 0.000005 26.738000 5.452620 -4.726390 12.994500 -0.242716 -4.980390 87.728200 8.599800 -75.141100 -5.348130 -0.000001 -0.000004 -57.172300 29.906800 -2.518080 -24.328900 0.000322 -0.000009 0.933638 1.661950 -29.351700 -22.291500 -0.000108 -0.000004 20.065000 5.459940 -4.998920 -2.192480 -6.469440 -0.000000 -175.750000 -19.017000 -2.000150 39.081100 -0.000007 -0.000012 -0.136295 0.271146 26.687100 40.985400 -0.000006 -0.000013 0.595648 7.309690 -70.060000 11.754300 -0.000000 0.000003 -0.000131 -0.001292 -16.626800 -2.192510 6.469440 -0.000001 174.787000 18.890400 176.294000 -39.081100 -0.002282 -0.040193 0.015043 -0.021744 28.361500 -40.985400 0.000008 0.000006 7.007520 15.924700 -71.578200 -11.754300 -0.000006 -0.000006 -0.095854 -0.119283 -16.737500
0.000000 0.000000 0.000000 0.000000 0.000000 -0.000000 0.035112 91.354900 1.364230 89.554100 -11.104900 3.604250 15.735700 0.000005 -0.000001 71.885600 84.837100 -67.522200 8.984550 -0.406207 -0.000000 2.196910 -3.419780 8.786280 16.377300 -0.000001 -0.000001 7.005170 -2.650230 0.362226 6.456720 -0.000001 -0.000000 4.586780 -3.788470 3.359370 12.994200 -0.242716 4.980390 -85.414400 -13.702700 -71.298900 5.348090 -0.000007 -0.000001 -56.878200 -62.739000 -82.370100 24.328600 0.000019 0.000005 -3.752460 -3.298360 -48.630600 22.291600 -0.000001 0.000005 22.954900 5.457630 -4.901140 12.994500 -0.242716 -4.980390 87.628300 9.415120 -75.791800 -5.348130 -0.000001 -0.000004 -54.531700 28.042400 -2.549600 -24.328900 0.000322 -0.000009 1.874580 3.227770 -30.185400 -22.291500 -0.000108 -0.000004 21.334500 5.453860 -4.779530 -2.192480 -6.469440 -0.000000 -175.467000 -20.091800 -1.604200 39.081100 -0.000007 -0.000012 -0.156487 0.320535 26.022100 40.985400 -0.000006 -0.000013 0.164528 5.261570 -70.112400 11.754300 -0.000000 0.000003 -0.000185 -0.001732 -16.643000 -2.192510 6.469440 -0.000001 175.341000 17.846700 176.086000 -39.081100 -0.002282 -0.040193 0.011821 -0.016498 27.294200 -40.985400 0.000008 0.000006 7.206070 17.988100 -71.166700 -11.754300 -0.000006 -0.000006 -0.132142 -0.161019 -16.609800
0.000000 0.000000 0.000000 0.000000 0.000000 -0.000000 0.186090 91.434100 1.591730 89.332000 -13.580500 3.385020 15.735700 0.000005 -0.000001 73.231200 84.790400 -68.595800 8.984550 -0.406207 -0.000000 2.360860 -3.221850 9.330330 16.377300 -0.000001 -0.000001 7.825120 -1.632210 -0.287024 6.456720 -0.000001 -0.000000 3.973940 -2.599010 2.950090 12.994200 -0.242716 4.980390 -83.982300 -15.586500 -68.579700 5.348090 -0.000007 -0.000001 -46.774500 -68.981200 -80.977200 24.328600 0.000019 0.000005 -0.623543 -0.776392 -38.666700 22.291600 -0.000001 0.000005 20.064600 5.421810 -3.644210 12.994500 -0.242716 -4.980390 87.447000 10.079900 -75.707600 -5.348130 -0.000001 -0.000004 -53.348600 25.474800 -3.299950 -24.328900 0.000322 -0.000009 2.709710 4.913970 -28.935100 -22.291500 -0.000108 -0.000004 21.926600 5.446030 -4.498810 -2.192480 -6.469440 -0.000000 -175.658000 -20.064800 -1.046690 39.081100 -0.000007 -0.000012 -0.161330 0.341562 25.283000 40.985400 -0.000006 -0.000013 -0.364608 2.791350 -70.113900 11.754300 -0.000000 0.000003 -0.000178 -0.001682 -16.641200 -2.192510 6.469440 -0.000001 175.499000 16.469500 176.091000 -39.081100 -0.002282 -0.040193 -0.000663 0.007964 26.508200 -40.985400 0.000008 0.000006 7.050630 19.150200 -70.873200 -11.754300 -0.000006 -0.000006 -0.114183 -0.136952 -16.485800
